# MagicaVoxel @ Ephtracy

# group
o 

# material
mtllib scythe.mtl
usemtl palette

# normals
vn -1 0 0
vn 1 0 0
vn 0 0 1
vn 0 0 -1
vn 0 -1 0
vn 0 1 0

# texcoords
vt 0.814453 0.5
vt 0.849609 0.5
vt 0.970703 0.5

# verts
v -1.9 0 -0.4
v -1.9 0 -0.6
v -1.9 0.2 -0.4
v -1.9 0.2 -0.6
v -1.8 0 -0.0999999
v -1.8 0 -0.4
v -1.8 0 -0.6
v -1.8 0 -0.9
v -1.8 0.2 -0.0999999
v -1.8 0.2 -0.4
v -1.8 0.2 -0.6
v -1.8 0.2 -0.9
v -1.7 0 0.2
v -1.7 0 -0.0999999
v -1.7 0.2 0.2
v -1.7 0.2 -0.0999999
v -1.6 0 0.4
v -1.6 0 0.2
v -1.6 0.2 0.4
v -1.6 0.2 0.2
v -1.5 0 0.6
v -1.5 0 0.4
v -1.5 0.2 0.6
v -1.5 0.2 0.4
v -1.4 0 0.8
v -1.4 0 0.6
v -1.4 0.2 0.8
v -1.4 0.2 0.6
v -1.3 0 0.9
v -1.3 0 0.8
v -1.3 0.2 0.9
v -1.3 0.2 0.8
v -1.2 0 1
v -1.2 0 0.9
v -1.2 0.2 1
v -1.2 0.2 0.9
v -1.1 0 1.1
v -1.1 0 1
v -1.1 0.2 1.1
v -1.1 0.2 1
v -1 0 1.2
v -1 0 1.1
v -1 0.2 1.2
v -1 0.2 1.1
v -1.7 0 -0.8
v -1.7 0 -0.9
v -1.7 0.2 -0.8
v -1.7 0.2 -0.9
v -1.6 0 -0.7
v -1.6 0 -0.8
v -1.6 0.2 -0.7
v -1.6 0.2 -0.8
v -1.5 0 -0.0999999
v -1.5 0 -0.4
v -1.5 0 -0.6
v -1.5 0 -0.7
v -1.5 0.2 -0.0999999
v -1.5 0.2 -0.4
v -1.5 0.2 -0.6
v -1.5 0.2 -0.7
v -1.4 0 0.2
v -1.4 0 -0.0999999
v -1.4 0.2 0.2
v -1.4 0.2 -0.0999999
v -1.3 0 0.4
v -1.3 0 0.2
v -1.3 0.2 0.4
v -1.3 0.2 0.2
v -1.2 0 0.6
v -1.2 0 0.4
v -1.2 0.2 0.6
v -1.2 0.2 0.4
v -1.1 0 0.8
v -1.1 0 0.6
v -1.1 0.2 0.8
v -1.1 0.2 0.6
v -1 0 0.9
v -1 0 0.8
v -1 0.2 0.9
v -1 0.2 0.8
v -0.9 0 1
v -0.9 0 0.9
v -0.9 0.2 1
v -0.9 0.2 0.9
v -0.8 0 1.1
v -0.8 0 1
v -0.8 0.2 1.1
v -0.8 0.2 1
v -0.7 0 1.2
v -0.7 0 1.1
v -0.7 0.2 1.2
v -0.7 0.2 1.1
v 2 0 -0.4
v 2 0 -0.6
v 2 0.2 -0.4
v 2 0.2 -0.6
v -1 0 1.2
v -1 0.2 1.2
v -0.7 0 1.2
v -0.7 0.2 1.2
v -1.1 0 1.1
v -1.1 0.2 1.1
v -1 0 1.1
v -1 0.2 1.1
v -1.2 0 1
v -1.2 0.2 1
v -1.1 0 1
v -1.1 0.2 1
v -1.3 0 0.9
v -1.3 0.2 0.9
v -1.2 0 0.9
v -1.2 0.2 0.9
v -1.4 0 0.8
v -1.4 0.2 0.8
v -1.3 0 0.8
v -1.3 0.2 0.8
v -1.5 0 0.6
v -1.5 0.2 0.6
v -1.4 0 0.6
v -1.4 0.2 0.6
v -1.6 0 0.4
v -1.6 0.2 0.4
v -1.5 0 0.4
v -1.5 0.2 0.4
v -1.7 0 0.2
v -1.7 0.2 0.2
v -1.6 0 0.2
v -1.6 0.2 0.2
v -1.8 0 -0.0999999
v -1.8 0.2 -0.0999999
v -1.7 0 -0.0999999
v -1.7 0.2 -0.0999999
v -1.9 0 -0.4
v -1.9 0.2 -0.4
v -1.8 0 -0.4
v -1.8 0.2 -0.4
v -1.5 0 -0.4
v -1.5 0.2 -0.4
v -0.5 0 -0.4
v -0.5 0.2 -0.4
v -0.3 0 -0.4
v -0.3 0.2 -0.4
v 1.3 0 -0.4
v 1.3 0.2 -0.4
v 1.5 0 -0.4
v 1.5 0.2 -0.4
v 2 0 -0.4
v 2 0.2 -0.4
v -0.8 0 1.1
v -0.8 0.2 1.1
v -0.7 0 1.1
v -0.7 0.2 1.1
v -0.9 0 1
v -0.9 0.2 1
v -0.8 0 1
v -0.8 0.2 1
v -1 0 0.9
v -1 0.2 0.9
v -0.9 0 0.9
v -0.9 0.2 0.9
v -1.1 0 0.8
v -1.1 0.2 0.8
v -1 0 0.8
v -1 0.2 0.8
v -1.2 0 0.6
v -1.2 0.2 0.6
v -1.1 0 0.6
v -1.1 0.2 0.6
v -1.3 0 0.4
v -1.3 0.2 0.4
v -1.2 0 0.4
v -1.2 0.2 0.4
v -1.4 0 0.2
v -1.4 0.2 0.2
v -1.3 0 0.2
v -1.3 0.2 0.2
v -1.5 0 -0.0999999
v -1.5 0.2 -0.0999999
v -1.4 0 -0.0999999
v -1.4 0.2 -0.0999999
v -1.9 0 -0.6
v -1.9 0.2 -0.6
v -1.8 0 -0.6
v -1.8 0.2 -0.6
v -1.5 0 -0.6
v -1.5 0.2 -0.6
v -0.5 0 -0.6
v -0.5 0.2 -0.6
v -0.3 0 -0.6
v -0.3 0.2 -0.6
v 1.3 0 -0.6
v 1.3 0.2 -0.6
v 1.5 0 -0.6
v 1.5 0.2 -0.6
v 2 0 -0.6
v 2 0.2 -0.6
v -1.6 0 -0.7
v -1.6 0.2 -0.7
v -1.5 0 -0.7
v -1.5 0.2 -0.7
v -1.7 0 -0.8
v -1.7 0.2 -0.8
v -1.6 0 -0.8
v -1.6 0.2 -0.8
v -1.8 0 -0.9
v -1.8 0.2 -0.9
v -1.7 0 -0.9
v -1.7 0.2 -0.9
v -1 0 1.2
v -0.7 0 1.2
v -1.1 0 1.1
v -1 0 1.1
v -0.8 0 1.1
v -0.7 0 1.1
v -1.2 0 1
v -1.1 0 1
v -0.9 0 1
v -0.8 0 1
v -1.3 0 0.9
v -1.2 0 0.9
v -1 0 0.9
v -0.9 0 0.9
v -1.4 0 0.8
v -1.3 0 0.8
v -1.1 0 0.8
v -1 0 0.8
v -1.5 0 0.6
v -1.4 0 0.6
v -1.2 0 0.6
v -1.1 0 0.6
v -1.6 0 0.4
v -1.5 0 0.4
v -1.3 0 0.4
v -1.2 0 0.4
v -1.7 0 0.2
v -1.6 0 0.2
v -1.4 0 0.2
v -1.3 0 0.2
v -1.8 0 -0.0999999
v -1.7 0 -0.0999999
v -1.5 0 -0.0999999
v -1.4 0 -0.0999999
v -1.9 0 -0.4
v -1.8 0 -0.4
v -1.7 0 -0.4
v -1.6 0 -0.4
v -1.5 0 -0.4
v -0.5 0 -0.4
v -0.3 0 -0.4
v 1.3 0 -0.4
v 1.5 0 -0.4
v 2 0 -0.4
v -1.9 0 -0.6
v -1.8 0 -0.6
v -1.7 0 -0.6
v -1.6 0 -0.6
v -1.5 0 -0.6
v -0.5 0 -0.6
v -0.3 0 -0.6
v 1.3 0 -0.6
v 1.5 0 -0.6
v 2 0 -0.6
v -1.6 0 -0.7
v -1.5 0 -0.7
v -1.7 0 -0.8
v -1.6 0 -0.8
v -1.8 0 -0.9
v -1.7 0 -0.9
v -1 0.2 1.2
v -0.7 0.2 1.2
v -1.1 0.2 1.1
v -1 0.2 1.1
v -0.8 0.2 1.1
v -0.7 0.2 1.1
v -1.2 0.2 1
v -1.1 0.2 1
v -0.9 0.2 1
v -0.8 0.2 1
v -1.3 0.2 0.9
v -1.2 0.2 0.9
v -1 0.2 0.9
v -0.9 0.2 0.9
v -1.4 0.2 0.8
v -1.3 0.2 0.8
v -1.1 0.2 0.8
v -1 0.2 0.8
v -1.5 0.2 0.6
v -1.4 0.2 0.6
v -1.2 0.2 0.6
v -1.1 0.2 0.6
v -1.6 0.2 0.4
v -1.5 0.2 0.4
v -1.3 0.2 0.4
v -1.2 0.2 0.4
v -1.7 0.2 0.2
v -1.6 0.2 0.2
v -1.4 0.2 0.2
v -1.3 0.2 0.2
v -1.8 0.2 -0.0999999
v -1.7 0.2 -0.0999999
v -1.5 0.2 -0.0999999
v -1.4 0.2 -0.0999999
v -1.9 0.2 -0.4
v -1.8 0.2 -0.4
v -1.7 0.2 -0.4
v -1.6 0.2 -0.4
v -1.5 0.2 -0.4
v -0.5 0.2 -0.4
v -0.3 0.2 -0.4
v 1.3 0.2 -0.4
v 1.5 0.2 -0.4
v 2 0.2 -0.4
v -1.9 0.2 -0.6
v -1.8 0.2 -0.6
v -1.7 0.2 -0.6
v -1.6 0.2 -0.6
v -1.5 0.2 -0.6
v -0.5 0.2 -0.6
v -0.3 0.2 -0.6
v 1.3 0.2 -0.6
v 1.5 0.2 -0.6
v 2 0.2 -0.6
v -1.6 0.2 -0.7
v -1.5 0.2 -0.7
v -1.7 0.2 -0.8
v -1.6 0.2 -0.8
v -1.8 0.2 -0.9
v -1.7 0.2 -0.9

# faces
f 3/2/1 2/2/1 1/2/1
f 4/2/1 2/2/1 3/2/1
f 9/3/1 6/3/1 5/3/1
f 10/3/1 6/3/1 9/3/1
f 11/3/1 8/3/1 7/3/1
f 12/3/1 8/3/1 11/3/1
f 15/3/1 14/3/1 13/3/1
f 16/3/1 14/3/1 15/3/1
f 19/3/1 18/3/1 17/3/1
f 20/3/1 18/3/1 19/3/1
f 23/3/1 22/3/1 21/3/1
f 24/3/1 22/3/1 23/3/1
f 27/3/1 26/3/1 25/3/1
f 28/3/1 26/3/1 27/3/1
f 31/3/1 30/3/1 29/3/1
f 32/3/1 30/3/1 31/3/1
f 35/3/1 34/3/1 33/3/1
f 36/3/1 34/3/1 35/3/1
f 39/3/1 38/3/1 37/3/1
f 40/3/1 38/3/1 39/3/1
f 43/3/1 42/3/1 41/3/1
f 44/3/1 42/3/1 43/3/1
f 45/3/2 46/3/2 47/3/2
f 47/3/2 46/3/2 48/3/2
f 49/3/2 50/3/2 51/3/2
f 51/3/2 50/3/2 52/3/2
f 53/3/2 54/3/2 57/3/2
f 57/3/2 54/3/2 58/3/2
f 55/3/2 56/3/2 59/3/2
f 59/3/2 56/3/2 60/3/2
f 61/3/2 62/3/2 63/3/2
f 63/3/2 62/3/2 64/3/2
f 65/3/2 66/3/2 67/3/2
f 67/3/2 66/3/2 68/3/2
f 69/3/2 70/3/2 71/3/2
f 71/3/2 70/3/2 72/3/2
f 73/3/2 74/3/2 75/3/2
f 75/3/2 74/3/2 76/3/2
f 77/3/2 78/3/2 79/3/2
f 79/3/2 78/3/2 80/3/2
f 81/3/2 82/3/2 83/3/2
f 83/3/2 82/3/2 84/3/2
f 85/3/2 86/3/2 87/3/2
f 87/3/2 86/3/2 88/3/2
f 89/3/2 90/3/2 91/3/2
f 91/3/2 90/3/2 92/3/2
f 93/2/2 94/2/2 95/2/2
f 95/2/2 94/2/2 96/2/2
f 99/3/3 98/3/3 97/3/3
f 100/3/3 98/3/3 99/3/3
f 103/3/3 102/3/3 101/3/3
f 104/3/3 102/3/3 103/3/3
f 107/3/3 106/3/3 105/3/3
f 108/3/3 106/3/3 107/3/3
f 111/3/3 110/3/3 109/3/3
f 112/3/3 110/3/3 111/3/3
f 115/3/3 114/3/3 113/3/3
f 116/3/3 114/3/3 115/3/3
f 119/3/3 118/3/3 117/3/3
f 120/3/3 118/3/3 119/3/3
f 123/3/3 122/3/3 121/3/3
f 124/3/3 122/3/3 123/3/3
f 127/3/3 126/3/3 125/3/3
f 128/3/3 126/3/3 127/3/3
f 131/3/3 130/3/3 129/3/3
f 132/3/3 130/3/3 131/3/3
f 135/2/3 134/2/3 133/2/3
f 136/2/3 134/2/3 135/2/3
f 139/2/3 138/2/3 137/2/3
f 140/2/3 138/2/3 139/2/3
f 141/1/3 140/1/3 139/1/3
f 142/1/3 140/1/3 141/1/3
f 143/2/3 142/2/3 141/2/3
f 144/2/3 142/2/3 143/2/3
f 145/1/3 144/1/3 143/1/3
f 146/1/3 144/1/3 145/1/3
f 147/2/3 146/2/3 145/2/3
f 148/2/3 146/2/3 147/2/3
f 149/3/4 150/3/4 151/3/4
f 151/3/4 150/3/4 152/3/4
f 153/3/4 154/3/4 155/3/4
f 155/3/4 154/3/4 156/3/4
f 157/3/4 158/3/4 159/3/4
f 159/3/4 158/3/4 160/3/4
f 161/3/4 162/3/4 163/3/4
f 163/3/4 162/3/4 164/3/4
f 165/3/4 166/3/4 167/3/4
f 167/3/4 166/3/4 168/3/4
f 169/3/4 170/3/4 171/3/4
f 171/3/4 170/3/4 172/3/4
f 173/3/4 174/3/4 175/3/4
f 175/3/4 174/3/4 176/3/4
f 177/3/4 178/3/4 179/3/4
f 179/3/4 178/3/4 180/3/4
f 181/2/4 182/2/4 183/2/4
f 183/2/4 182/2/4 184/2/4
f 185/2/4 186/2/4 187/2/4
f 187/2/4 186/2/4 188/2/4
f 187/1/4 188/1/4 189/1/4
f 189/1/4 188/1/4 190/1/4
f 189/2/4 190/2/4 191/2/4
f 191/2/4 190/2/4 192/2/4
f 191/1/4 192/1/4 193/1/4
f 193/1/4 192/1/4 194/1/4
f 193/2/4 194/2/4 195/2/4
f 195/2/4 194/2/4 196/2/4
f 197/3/4 198/3/4 199/3/4
f 199/3/4 198/3/4 200/3/4
f 201/3/4 202/3/4 203/3/4
f 203/3/4 202/3/4 204/3/4
f 205/3/4 206/3/4 207/3/4
f 207/3/4 206/3/4 208/3/4
f 212/3/5 210/3/5 209/3/5
f 213/3/5 210/3/5 212/3/5
f 214/3/5 210/3/5 213/3/5
f 216/3/5 212/3/5 211/3/5
f 216/3/5 213/3/5 212/3/5
f 217/3/5 213/3/5 216/3/5
f 218/3/5 213/3/5 217/3/5
f 220/3/5 216/3/5 215/3/5
f 220/3/5 217/3/5 216/3/5
f 221/3/5 217/3/5 220/3/5
f 222/3/5 217/3/5 221/3/5
f 224/3/5 220/3/5 219/3/5
f 224/3/5 221/3/5 220/3/5
f 225/3/5 221/3/5 224/3/5
f 226/3/5 221/3/5 225/3/5
f 228/3/5 224/3/5 223/3/5
f 228/3/5 225/3/5 224/3/5
f 229/3/5 225/3/5 228/3/5
f 230/3/5 225/3/5 229/3/5
f 232/3/5 228/3/5 227/3/5
f 232/3/5 229/3/5 228/3/5
f 233/3/5 229/3/5 232/3/5
f 234/3/5 229/3/5 233/3/5
f 236/3/5 232/3/5 231/3/5
f 236/3/5 233/3/5 232/3/5
f 237/3/5 233/3/5 236/3/5
f 238/3/5 233/3/5 237/3/5
f 240/3/5 236/3/5 235/3/5
f 240/3/5 237/3/5 236/3/5
f 241/3/5 237/3/5 240/3/5
f 242/3/5 237/3/5 241/3/5
f 244/3/5 240/3/5 239/3/5
f 244/3/5 241/3/5 240/3/5
f 245/3/5 241/3/5 244/3/5
f 246/3/5 241/3/5 245/3/5
f 247/3/5 241/3/5 246/3/5
f 253/2/5 245/2/5 244/2/5
f 253/2/5 244/2/5 243/2/5
f 254/2/5 245/2/5 253/2/5
f 255/3/5 246/3/5 245/3/5
f 255/2/5 245/2/5 254/2/5
f 256/2/5 247/2/5 246/2/5
f 256/3/5 246/3/5 255/3/5
f 256/2/5 248/2/5 247/2/5
f 257/2/5 248/2/5 256/2/5
f 258/1/5 249/1/5 248/1/5
f 258/2/5 248/2/5 257/2/5
f 259/2/5 250/2/5 249/2/5
f 259/1/5 249/1/5 258/1/5
f 260/1/5 251/1/5 250/1/5
f 260/2/5 250/2/5 259/2/5
f 261/2/5 252/2/5 251/2/5
f 261/1/5 251/1/5 260/1/5
f 262/2/5 252/2/5 261/2/5
f 263/3/5 255/3/5 254/3/5
f 263/3/5 256/3/5 255/3/5
f 263/3/5 257/3/5 256/3/5
f 264/3/5 257/3/5 263/3/5
f 265/3/5 263/3/5 254/3/5
f 266/3/5 263/3/5 265/3/5
f 267/3/5 265/3/5 254/3/5
f 268/3/5 265/3/5 267/3/5
f 269/3/6 270/3/6 272/3/6
f 272/3/6 270/3/6 273/3/6
f 273/3/6 270/3/6 274/3/6
f 271/3/6 272/3/6 276/3/6
f 272/3/6 273/3/6 276/3/6
f 276/3/6 273/3/6 277/3/6
f 277/3/6 273/3/6 278/3/6
f 275/3/6 276/3/6 280/3/6
f 276/3/6 277/3/6 280/3/6
f 280/3/6 277/3/6 281/3/6
f 281/3/6 277/3/6 282/3/6
f 279/3/6 280/3/6 284/3/6
f 280/3/6 281/3/6 284/3/6
f 284/3/6 281/3/6 285/3/6
f 285/3/6 281/3/6 286/3/6
f 283/3/6 284/3/6 288/3/6
f 284/3/6 285/3/6 288/3/6
f 288/3/6 285/3/6 289/3/6
f 289/3/6 285/3/6 290/3/6
f 287/3/6 288/3/6 292/3/6
f 288/3/6 289/3/6 292/3/6
f 292/3/6 289/3/6 293/3/6
f 293/3/6 289/3/6 294/3/6
f 291/3/6 292/3/6 296/3/6
f 292/3/6 293/3/6 296/3/6
f 296/3/6 293/3/6 297/3/6
f 297/3/6 293/3/6 298/3/6
f 295/3/6 296/3/6 300/3/6
f 296/3/6 297/3/6 300/3/6
f 300/3/6 297/3/6 301/3/6
f 301/3/6 297/3/6 302/3/6
f 299/3/6 300/3/6 304/3/6
f 300/3/6 301/3/6 304/3/6
f 304/3/6 301/3/6 305/3/6
f 305/3/6 301/3/6 306/3/6
f 306/3/6 301/3/6 307/3/6
f 304/2/6 305/2/6 313/2/6
f 303/2/6 304/2/6 313/2/6
f 313/2/6 305/2/6 314/2/6
f 305/3/6 306/3/6 315/3/6
f 314/2/6 305/2/6 315/2/6
f 306/2/6 307/2/6 316/2/6
f 315/3/6 306/3/6 316/3/6
f 307/2/6 308/2/6 316/2/6
f 316/2/6 308/2/6 317/2/6
f 308/1/6 309/1/6 318/1/6
f 317/2/6 308/2/6 318/2/6
f 309/2/6 310/2/6 319/2/6
f 318/1/6 309/1/6 319/1/6
f 310/1/6 311/1/6 320/1/6
f 319/2/6 310/2/6 320/2/6
f 311/2/6 312/2/6 321/2/6
f 320/1/6 311/1/6 321/1/6
f 321/2/6 312/2/6 322/2/6
f 314/3/6 315/3/6 323/3/6
f 315/3/6 316/3/6 323/3/6
f 316/3/6 317/3/6 323/3/6
f 323/3/6 317/3/6 324/3/6
f 314/3/6 323/3/6 325/3/6
f 325/3/6 323/3/6 326/3/6
f 314/3/6 325/3/6 327/3/6
f 327/3/6 325/3/6 328/3/6
